<svg width="128" height="128" viewBox="0 0 100 100" fill="none" xmlns="http://www.w3.org/2000/svg">
  <defs>
    <linearGradient id="bg" x1="0" y1="0" x2="0" y2="1">
      <stop offset="0%" stop-color="#1e293b"/>
      <stop offset="100%" stop-color="#0f172a"/>
    </linearGradient>
    <linearGradient id="amber" x1="0" y1="0" x2="0" y2="1">
      <stop offset="0%" stop-color="#fbbf24"/>
      <stop offset="100%" stop-color="#f59e0b"/>
    </linearGradient>
  </defs>
  <!-- Background hex fill for contrast -->
  <path d="M50 5L90 27.5V72.5L50 95L10 72.5V27.5L50 5Z" fill="url(#bg)"/>
  <!-- Hex outline -->
  <path d="M50 5L90 27.5V72.5L50 95L10 72.5V27.5L50 5Z" stroke="#334155" stroke-width="3" fill="none" stroke-linejoin="round"/>
  <!-- Inner Flame / Teardrop -->
  <path d="M50 30C50 30 35 45 35 60C35 68.2843 41.7157 75 50 75C58.2843 75 65 68.2843 65 60C65 45 50 30 50 30Z" fill="url(#amber)"/>
  <!-- Center core dot -->
  <circle cx="50" cy="62" r="4.5" fill="white"/>
</svg>
